<?xml version="1.0" encoding="UTF-8" standalone="no"?>
<!-- Created with Inkscape (http://www.inkscape.org/) -->

<svg
   xmlns:dc="http://purl.org/dc/elements/1.1/"
   xmlns:cc="http://creativecommons.org/ns#"
   xmlns:rdf="http://www.w3.org/1999/02/22-rdf-syntax-ns#"
   xmlns:svg="http://www.w3.org/2000/svg"
   xmlns="http://www.w3.org/2000/svg"
   xmlns:sodipodi="http://sodipodi.sourceforge.net/DTD/sodipodi-0.dtd"
   xmlns:inkscape="http://www.inkscape.org/namespaces/inkscape"
   width="129.82222mm"
   height="112.42934mm"
   viewBox="0 0 459.99999 398.37169"
   id="svg4153"
   version="1.1"
   inkscape:version="0.91 r13725"
   sodipodi:docname="grass.svg">
  <defs
     id="defs4155" />
  <sodipodi:namedview
     id="base"
     pagecolor="#ffffff"
     bordercolor="#666666"
     borderopacity="1.0"
     inkscape:pageopacity="0.0"
     inkscape:pageshadow="2"
     inkscape:zoom="0.98994949"
     inkscape:cx="-108.03595"
     inkscape:cy="141.31232"
     inkscape:document-units="px"
     inkscape:current-layer="layer1"
     showgrid="false"
     inkscape:window-width="1920"
     inkscape:window-height="1018"
     inkscape:window-x="-8"
     inkscape:window-y="-8"
     inkscape:window-maximized="1"
     fit-margin-top="0"
     fit-margin-left="0"
     fit-margin-right="0"
     fit-margin-bottom="0" />
  <metadata
     id="metadata4158">
    <rdf:RDF>
      <cc:Work
         rdf:about="">
        <dc:format>image/svg+xml</dc:format>
        <dc:type
           rdf:resource="http://purl.org/dc/dcmitype/StillImage" />
        <dc:title></dc:title>
      </cc:Work>
    </rdf:RDF>
  </metadata>
  <g
     inkscape:label="Capa 1"
     inkscape:groupmode="layer"
     id="layer1"
     transform="translate(-130,-298.89063)">
    <path
       d="m 590,498.07648 -115,199.18584 -230,0 -115,-199.18584 115,-199.18585 230,0 z"
       inkscape:randomized="0"
       inkscape:rounded="0"
       inkscape:flatsided="true"
       sodipodi:arg2="0.52359878"
       sodipodi:arg1="0"
       sodipodi:r2="199.18584"
       sodipodi:r1="230"
       sodipodi:cy="498.07648"
       sodipodi:cx="360"
       sodipodi:sides="6"
       id="path4244-4-2-3-9"
       style="opacity:1;fill:#447821;fill-opacity:1;stroke:none;stroke-width:25;stroke-miterlimit:4;stroke-dasharray:none;stroke-opacity:1"
       sodipodi:type="star"
       inkscape:export-filename="C:\Users\CARLOS ALIAGA\Desktop\inkscape\bosque.png"
       inkscape:export-xdpi="90"
       inkscape:export-ydpi="90" />
    <path
       style="color:#000000;clip-rule:nonzero;display:inline;overflow:visible;visibility:visible;opacity:1;isolation:auto;mix-blend-mode:normal;color-interpolation:sRGB;color-interpolation-filters:linearRGB;solid-color:#000000;solid-opacity:1;fill:#445500;fill-opacity:1;fill-rule:nonzero;stroke:#445500;stroke-width:0.505;stroke-linecap:round;stroke-linejoin:round;stroke-miterlimit:4;stroke-dasharray:none;stroke-dashoffset:0;stroke-opacity:1;color-rendering:auto;image-rendering:auto;shape-rendering:auto;text-rendering:auto;enable-background:accumulate"
       d="m 287.81662,435.3082 c -6.40446,-8.12542 -11.5832,-14.84497 -11.50831,-14.93235 0.0749,-0.0874 6.21312,3.3787 13.64051,7.70241 7.42739,4.32371 13.64878,7.86128 13.82531,7.86128 0.17653,0 2.92827,-9.75441 6.11497,-21.67646 3.18671,-11.92206 5.92845,-21.45894 6.09276,-21.19307 0.16432,0.26586 2.77987,9.79234 5.81234,21.16994 3.03248,11.3776 5.74088,20.68268 6.01867,20.67794 0.27779,-0.005 6.97231,-3.7457 14.87671,-8.31326 7.90439,-4.56757 14.45539,-8.2209 14.55777,-8.11852 0.10239,0.10238 -4.74787,7.25327 -10.77834,15.89086 l -12.85852,15.70471 -16.12768,0 -18.02172,0 z"
       id="path4709"
       inkscape:connector-curvature="0"
       sodipodi:nodetypes="scssscscscscccs" />
    <path
       style="color:#000000;clip-rule:nonzero;display:inline;overflow:visible;visibility:visible;opacity:1;isolation:auto;mix-blend-mode:normal;color-interpolation:sRGB;color-interpolation-filters:linearRGB;solid-color:#000000;solid-opacity:1;fill:#445500;fill-opacity:1;fill-rule:nonzero;stroke:#445500;stroke-width:0.505;stroke-linecap:round;stroke-linejoin:round;stroke-miterlimit:4;stroke-dasharray:none;stroke-dashoffset:0;stroke-opacity:1;color-rendering:auto;image-rendering:auto;shape-rendering:auto;text-rendering:auto;enable-background:accumulate"
       d="m 414.60963,498.95382 c -6.40446,-8.12542 -11.5832,-14.84497 -11.50831,-14.93235 0.0749,-0.0874 6.21312,3.3787 13.64051,7.70241 7.42739,4.32371 13.64878,7.86128 13.82531,7.86128 0.17653,0 2.92827,-9.75441 6.11497,-21.67646 3.18671,-11.92206 5.92845,-21.45894 6.09276,-21.19307 0.16432,0.26586 2.77987,9.79234 5.81234,21.16994 3.03248,11.3776 5.74088,20.68268 6.01867,20.67794 0.27779,-0.005 6.97231,-3.7457 14.87671,-8.31326 7.90439,-4.56757 14.45539,-8.2209 14.55777,-8.11852 0.10239,0.10238 -4.74787,7.25327 -10.77834,15.89086 l -12.85852,15.70471 -16.12768,0 -18.02172,0 z"
       id="path4709-8"
       inkscape:connector-curvature="0"
       sodipodi:nodetypes="scssscscscscccs" />
    <path
       style="color:#000000;clip-rule:nonzero;display:inline;overflow:visible;visibility:visible;opacity:1;isolation:auto;mix-blend-mode:normal;color-interpolation:sRGB;color-interpolation-filters:linearRGB;solid-color:#000000;solid-opacity:1;fill:#445500;fill-opacity:1;fill-rule:nonzero;stroke:#445500;stroke-width:0.505;stroke-linecap:round;stroke-linejoin:round;stroke-miterlimit:4;stroke-dasharray:none;stroke-dashoffset:0;stroke-opacity:1;color-rendering:auto;image-rendering:auto;shape-rendering:auto;text-rendering:auto;enable-background:accumulate"
       d="m 258.18106,570.38238 c -6.40446,-8.12542 -11.5832,-14.84497 -11.50831,-14.93235 0.0749,-0.0874 6.21312,3.3787 13.64051,7.70241 7.42739,4.32371 13.64878,7.86128 13.82531,7.86128 0.17653,0 2.92827,-9.75441 6.11497,-21.67646 3.18671,-11.92206 5.92845,-21.45894 6.09276,-21.19307 0.16432,0.26586 2.77987,9.79234 5.81234,21.16994 3.03248,11.3776 5.74088,20.68268 6.01867,20.67794 0.27779,-0.005 6.97231,-3.7457 14.87671,-8.31326 7.90439,-4.56757 14.45539,-8.2209 14.55777,-8.11852 0.10239,0.10238 -4.74787,7.25327 -10.77834,15.89086 l -12.85852,15.70471 -16.12768,0 -18.02172,0 z"
       id="path4709-4"
       inkscape:connector-curvature="0"
       sodipodi:nodetypes="scssscscscscccs" />
  </g>
</svg>
