<?xml version="1.0" encoding="UTF-8" standalone="no"?>
<!-- Created with Inkscape (http://www.inkscape.org/) -->

<svg
   xmlns:dc="http://purl.org/dc/elements/1.1/"
   xmlns:cc="http://creativecommons.org/ns#"
   xmlns:rdf="http://www.w3.org/1999/02/22-rdf-syntax-ns#"
   xmlns:svg="http://www.w3.org/2000/svg"
   xmlns="http://www.w3.org/2000/svg"
   xmlns:sodipodi="http://sodipodi.sourceforge.net/DTD/sodipodi-0.dtd"
   xmlns:inkscape="http://www.inkscape.org/namespaces/inkscape"
   width="129.82222mm"
   height="112.42934mm"
   viewBox="0 0 459.99999 398.37169"
   id="svg4153"
   version="1.1"
   inkscape:version="0.91 r13725"
   sodipodi:docname="river.svg">
  <defs
     id="defs4155" />
  <sodipodi:namedview
     id="base"
     pagecolor="#ffffff"
     bordercolor="#666666"
     borderopacity="1.0"
     inkscape:pageopacity="0.0"
     inkscape:pageshadow="2"
     inkscape:zoom="0.98994949"
     inkscape:cx="151.57325"
     inkscape:cy="199.90117"
     inkscape:document-units="px"
     inkscape:current-layer="layer1"
     showgrid="false"
     inkscape:window-width="1360"
     inkscape:window-height="705"
     inkscape:window-x="-8"
     inkscape:window-y="-8"
     inkscape:window-maximized="1"
     fit-margin-top="0"
     fit-margin-left="0"
     fit-margin-right="0"
     fit-margin-bottom="0" />
  <metadata
     id="metadata4158">
    <rdf:RDF>
      <cc:Work
         rdf:about="">
        <dc:format>image/svg+xml</dc:format>
        <dc:type
           rdf:resource="http://purl.org/dc/dcmitype/StillImage" />
        <dc:title />
      </cc:Work>
    </rdf:RDF>
  </metadata>
  <g
     inkscape:label="Capa 1"
     inkscape:groupmode="layer"
     id="layer1"
     transform="translate(-130,-298.89063)">
    <g
       id="g4153">
      <path
         inkscape:export-ydpi="90"
         inkscape:export-xdpi="90"
         inkscape:export-filename="C:\Users\CARLOS ALIAGA\Desktop\inkscape\bosque.png"
         sodipodi:type="star"
         style="opacity:1;fill:#8293ab;fill-opacity:1;stroke:none;stroke-width:25;stroke-miterlimit:4;stroke-dasharray:none;stroke-opacity:1"
         id="path4244-4-2-3-9"
         sodipodi:sides="6"
         sodipodi:cx="360"
         sodipodi:cy="498.07648"
         sodipodi:r1="230"
         sodipodi:r2="199.18584"
         sodipodi:arg1="0"
         sodipodi:arg2="0.52359878"
         inkscape:flatsided="true"
         inkscape:rounded="0"
         inkscape:randomized="0"
         d="m 590,498.07648 -115,199.18584 -230,0 -115,-199.18584 115,-199.18585 230,0 z" />
      <path
         style="color:#000000;clip-rule:nonzero;display:inline;overflow:visible;visibility:visible;opacity:1;isolation:auto;mix-blend-mode:normal;color-interpolation:sRGB;color-interpolation-filters:linearRGB;solid-color:#000000;solid-opacity:1;fill:#445500;fill-opacity:1;fill-rule:nonzero;stroke:#445500;stroke-width:0.40269372;stroke-linecap:round;stroke-linejoin:round;stroke-miterlimit:4;stroke-dasharray:none;stroke-dashoffset:0;stroke-opacity:1;color-rendering:auto;image-rendering:auto;shape-rendering:auto;text-rendering:auto;enable-background:accumulate"
         d="m 251.85557,356.33985 c -5.1071,-6.4793 -9.2366,-11.8376 -9.177,-11.9072 0.06,-0.069 4.9545,2.6943 10.8772,6.1421 5.9226,3.4478 10.8837,6.2686 11.0245,6.2686 0.1407,0 2.335,-7.7784 4.8761,-17.2851 2.5411,-9.5069 4.7275,-17.1117 4.8585,-16.8997 0.131,0.212 2.2167,7.8086 4.6348,16.8812 2.4181,9.0727 4.5778,16.4926 4.7994,16.4889 0.2215,0 5.5598,-2.9869 11.8628,-6.6292 6.3031,-3.6422 11.527,-6.5554 11.6086,-6.4738 0.082,0.082 -3.786,5.7839 -8.5948,12.6716 l -10.2536,12.5232 -12.8604,0 -14.3707,0 z"
         id="path4709-4-7-7-41-7"
         inkscape:connector-curvature="0"
         sodipodi:nodetypes="scssscscscscccs"
         inkscape:export-xdpi="90"
         inkscape:export-ydpi="90" />
      <path
         style="color:#000000;clip-rule:nonzero;display:inline;overflow:visible;visibility:visible;opacity:1;isolation:auto;mix-blend-mode:normal;color-interpolation:sRGB;color-interpolation-filters:linearRGB;solid-color:#000000;solid-opacity:1;fill:#445500;fill-opacity:1;fill-rule:nonzero;stroke:#445500;stroke-width:0.40269372;stroke-linecap:round;stroke-linejoin:round;stroke-miterlimit:4;stroke-dasharray:none;stroke-dashoffset:0;stroke-opacity:1;color-rendering:auto;image-rendering:auto;shape-rendering:auto;text-rendering:auto;enable-background:accumulate"
         d="m 251.85557,666.12777 c -5.1071,-6.4793 -9.2366,-11.8376 -9.177,-11.9072 0.06,-0.069 4.9545,2.6942 10.8772,6.142 5.9226,3.4478 10.8837,6.2687 11.0245,6.2687 0.1407,0 2.335,-7.7784 4.8761,-17.2851 2.5411,-9.5069 4.7275,-17.1117 4.8585,-16.8997 0.131,0.212 2.2167,7.8086 4.6348,16.8812 2.4181,9.0727 4.5778,16.4926 4.7994,16.4889 0.2215,0 5.5598,-2.9869 11.8628,-6.6292 6.3031,-3.6422 11.527,-6.5554 11.6086,-6.4738 0.082,0.082 -3.786,5.7839 -8.5948,12.6716 l -10.2536,12.5232 -12.8604,0 -14.3707,0 z"
         id="path4709-4-7-7-41-7-0"
         inkscape:connector-curvature="0"
         sodipodi:nodetypes="scssscscscscccs"
         inkscape:export-xdpi="90"
         inkscape:export-ydpi="90" />
      <path
         style="color:#000000;clip-rule:nonzero;display:inline;overflow:visible;visibility:visible;opacity:1;isolation:auto;mix-blend-mode:normal;color-interpolation:sRGB;color-interpolation-filters:linearRGB;solid-color:#000000;solid-opacity:1;fill:#445500;fill-opacity:1;fill-rule:nonzero;stroke:#445500;stroke-width:0.40269372;stroke-linecap:round;stroke-linejoin:round;stroke-miterlimit:4;stroke-dasharray:none;stroke-dashoffset:0;stroke-opacity:1;color-rendering:auto;image-rendering:auto;shape-rendering:auto;text-rendering:auto;enable-background:accumulate"
         d="m 421.73068,356.33985 c -5.1071,-6.4793 -9.2366,-11.8376 -9.177,-11.9072 0.06,-0.069 4.9545,2.6942 10.8772,6.142 5.9226,3.4478 10.8837,6.2687 11.0245,6.2687 0.1407,0 2.335,-7.7784 4.8761,-17.2851 2.5411,-9.5069 4.7275,-17.1117 4.8585,-16.8997 0.131,0.212 2.2167,7.8086 4.6348,16.8812 2.4181,9.0727 4.5778,16.4926 4.7994,16.4889 0.2215,0 5.5598,-2.9869 11.8628,-6.6292 6.3031,-3.6422 11.527,-6.5554 11.6086,-6.4738 0.082,0.082 -3.786,5.7839 -8.5948,12.6716 l -10.2536,12.5232 -12.8604,0 -14.3707,0 z"
         id="path4709-4-7-7-41-7-4"
         inkscape:connector-curvature="0"
         sodipodi:nodetypes="scssscscscscccs"
         inkscape:export-xdpi="90"
         inkscape:export-ydpi="90" />
      <path
         style="color:#000000;clip-rule:nonzero;display:inline;overflow:visible;visibility:visible;opacity:1;isolation:auto;mix-blend-mode:normal;color-interpolation:sRGB;color-interpolation-filters:linearRGB;solid-color:#000000;solid-opacity:1;fill:#445500;fill-opacity:1;fill-rule:nonzero;stroke:#445500;stroke-width:0.40269372;stroke-linecap:round;stroke-linejoin:round;stroke-miterlimit:4;stroke-dasharray:none;stroke-dashoffset:0;stroke-opacity:1;color-rendering:auto;image-rendering:auto;shape-rendering:auto;text-rendering:auto;enable-background:accumulate"
         d="m 421.73068,666.12777 c -5.1071,-6.4793 -9.2366,-11.8376 -9.177,-11.9072 0.06,-0.069 4.9545,2.6942 10.8772,6.142 5.9226,3.4478 10.8837,6.2687 11.0245,6.2687 0.1407,0 2.335,-7.7784 4.8761,-17.2851 2.5411,-9.5069 4.7275,-17.1117 4.8585,-16.8997 0.131,0.212 2.2167,7.8086 4.6348,16.8812 2.4181,9.0727 4.5778,16.4926 4.7994,16.4889 0.2215,0 5.5598,-2.9869 11.8628,-6.6292 6.3031,-3.6422 11.527,-6.5554 11.6086,-6.4738 0.082,0.082 -3.786,5.7839 -8.5948,12.6716 l -10.2536,12.5232 -12.8604,0 -14.3707,0 z"
         id="path4709-4-7-7-41-7-4-5"
         inkscape:connector-curvature="0"
         sodipodi:nodetypes="scssscscscscccs"
         inkscape:export-xdpi="90"
         inkscape:export-ydpi="90" />
      <path
         style="color:#000000;clip-rule:nonzero;display:inline;overflow:visible;visibility:visible;opacity:1;isolation:auto;mix-blend-mode:normal;color-interpolation:sRGB;color-interpolation-filters:linearRGB;solid-color:#000000;solid-opacity:1;fill:#445500;fill-opacity:1;fill-rule:nonzero;stroke:#445500;stroke-width:0.40269372;stroke-linecap:round;stroke-linejoin:round;stroke-miterlimit:4;stroke-dasharray:none;stroke-dashoffset:0;stroke-opacity:1;color-rendering:auto;image-rendering:auto;shape-rendering:auto;text-rendering:auto;enable-background:accumulate"
         d="m 509.73069,515.12776 c -5.1071,-6.4793 -9.2366,-11.8376 -9.177,-11.9072 0.06,-0.069 4.9545,2.6942 10.8772,6.142 5.9226,3.4478 10.8837,6.2687 11.0245,6.2687 0.1407,0 2.335,-7.7784 4.8761,-17.2851 2.5411,-9.5069 4.7275,-17.1117 4.8585,-16.8997 0.131,0.212 2.2167,7.8086 4.6348,16.8812 2.4181,9.0727 4.5778,16.4926 4.7994,16.4889 0.2215,0 5.5598,-2.9869 11.8628,-6.6292 6.3031,-3.6422 11.527,-6.5554 11.6086,-6.4738 0.082,0.082 -3.786,5.7839 -8.5948,12.6716 l -10.2536,12.5232 -12.8604,0 -14.3707,0 z"
         id="path4709-4-7-7-41-7-4-5-1"
         inkscape:connector-curvature="0"
         sodipodi:nodetypes="scssscscscscccs"
         inkscape:export-xdpi="90"
         inkscape:export-ydpi="90" />
      <path
         style="color:#000000;clip-rule:nonzero;display:inline;overflow:visible;visibility:visible;opacity:1;isolation:auto;mix-blend-mode:normal;color-interpolation:sRGB;color-interpolation-filters:linearRGB;solid-color:#000000;solid-opacity:1;fill:#445500;fill-opacity:1;fill-rule:nonzero;stroke:#445500;stroke-width:0.40269372;stroke-linecap:round;stroke-linejoin:round;stroke-miterlimit:4;stroke-dasharray:none;stroke-dashoffset:0;stroke-opacity:1;color-rendering:auto;image-rendering:auto;shape-rendering:auto;text-rendering:auto;enable-background:accumulate"
         d="m 166.73066,515.12776 c -5.1071,-6.4793 -9.2366,-11.8376 -9.177,-11.9072 0.06,-0.069 4.9545,2.6942 10.8772,6.142 5.9226,3.4478 10.88371,6.2687 11.02451,6.2687 0.1407,0 2.335,-7.7784 4.8761,-17.2851 2.5411,-9.5069 4.7275,-17.1117 4.8585,-16.8997 0.131,0.212 2.2167,7.8086 4.6348,16.8812 2.4181,9.0727 4.5778,16.4926 4.7994,16.4889 0.2215,0 5.5598,-2.9869 11.8628,-6.6292 6.3031,-3.6422 11.527,-6.5554 11.6086,-6.4738 0.082,0.082 -3.786,5.7839 -8.5948,12.6716 l -10.2536,12.5232 -12.8604,0 -14.37071,0 z"
         id="path4709-4-7-7-41-7-4-5-5"
         inkscape:connector-curvature="0"
         sodipodi:nodetypes="scssscscscscccs"
         inkscape:export-xdpi="90"
         inkscape:export-ydpi="90" />
    </g>
  </g>
</svg>
