<?xml version="1.0" encoding="UTF-8" standalone="no"?>
<!-- Created with Inkscape (http://www.inkscape.org/) -->

<svg
   xmlns:dc="http://purl.org/dc/elements/1.1/"
   xmlns:cc="http://creativecommons.org/ns#"
   xmlns:rdf="http://www.w3.org/1999/02/22-rdf-syntax-ns#"
   xmlns:svg="http://www.w3.org/2000/svg"
   xmlns="http://www.w3.org/2000/svg"
   xmlns:sodipodi="http://sodipodi.sourceforge.net/DTD/sodipodi-0.dtd"
   xmlns:inkscape="http://www.inkscape.org/namespaces/inkscape"
   width="95.852211mm"
   height="74.6063mm"
   viewBox="0 0 339.63382 264.35303"
   id="svg14215"
   version="1.1"
   inkscape:version="0.91 r13725"
   sodipodi:docname="weather_rain.svg">
  <defs
     id="defs14217" />
  <sodipodi:namedview
     id="base"
     pagecolor="#ffffff"
     bordercolor="#666666"
     borderopacity="1.0"
     inkscape:pageopacity="0.0"
     inkscape:pageshadow="2"
     inkscape:zoom="0.35"
     inkscape:cx="-250.89733"
     inkscape:cy="52.176518"
     inkscape:document-units="px"
     inkscape:current-layer="layer1"
     showgrid="false"
     inkscape:window-width="1920"
     inkscape:window-height="1018"
     inkscape:window-x="-8"
     inkscape:window-y="-8"
     inkscape:window-maximized="1"
     fit-margin-top="0"
     fit-margin-left="0"
     fit-margin-right="0"
     fit-margin-bottom="0" />
  <metadata
     id="metadata14220">
    <rdf:RDF>
      <cc:Work
         rdf:about="">
        <dc:format>image/svg+xml</dc:format>
        <dc:type
           rdf:resource="http://purl.org/dc/dcmitype/StillImage" />
        <dc:title></dc:title>
      </cc:Work>
    </rdf:RDF>
  </metadata>
  <g
     inkscape:label="Capa 1"
     inkscape:groupmode="layer"
     id="layer1"
     transform="translate(-98.754475,-320.1857)">
    <g
       transform="matrix(0.79421645,0,0,0.79421645,3643.2423,-226.1593)"
       id="g6417-9-6-4-9-0"
       inkscape:export-xdpi="90"
       inkscape:export-ydpi="90">
      <path
         style="fill:none;fill-rule:evenodd;stroke:#49887e;stroke-width:12.59102631;stroke-linecap:butt;stroke-linejoin:miter;stroke-miterlimit:4;stroke-dasharray:25.18205207, 12.59102604;stroke-dashoffset:0;stroke-opacity:1"
         d="m -4394.9428,960.20112 0,-117.52225"
         id="path6543-54-7"
         inkscape:connector-curvature="0" />
      <path
         style="fill:none;fill-rule:evenodd;stroke:#49887e;stroke-width:12.59102631;stroke-linecap:butt;stroke-linejoin:miter;stroke-miterlimit:4;stroke-dasharray:25.18205207, 12.59102604;stroke-dashoffset:0;stroke-opacity:1"
         d="m -4330.3946,960.20113 0,-117.52226"
         id="path6543-1-8-9"
         inkscape:connector-curvature="0" />
      <path
         style="fill:none;fill-rule:evenodd;stroke:#49887e;stroke-width:12.59102631;stroke-linecap:butt;stroke-linejoin:miter;stroke-miterlimit:4;stroke-dasharray:25.18205207, 12.59102604;stroke-dashoffset:0;stroke-opacity:1"
         d="m -4265.8468,960.20112 0,-117.52226"
         id="path6543-3-7-9"
         inkscape:connector-curvature="0" />
      <path
         style="fill:none;fill-rule:evenodd;stroke:#49887e;stroke-width:12.59102631;stroke-linecap:butt;stroke-linejoin:miter;stroke-miterlimit:4;stroke-dasharray:25.18205207, 12.59102604;stroke-dashoffset:0;stroke-opacity:1"
         d="m -4201.2981,960.20112 0,-117.52226"
         id="path6543-8-8-3"
         inkscape:connector-curvature="0" />
      <path
         style="fill:none;fill-rule:evenodd;stroke:#49887e;stroke-width:12.59102631;stroke-linecap:butt;stroke-linejoin:miter;stroke-miterlimit:4;stroke-dasharray:25.18205207, 12.59102604;stroke-dashoffset:0;stroke-opacity:1"
         d="m -4169.0243,960.20113 0,-117.52226"
         id="path6543-19-3-9"
         inkscape:connector-curvature="0" />
      <path
         style="fill:none;fill-rule:evenodd;stroke:#49887e;stroke-width:12.59102631;stroke-linecap:butt;stroke-linejoin:miter;stroke-miterlimit:4;stroke-dasharray:25.18205207, 12.59102604;stroke-dashoffset:0;stroke-opacity:1"
         d="m -4136.7501,960.20113 0,-117.52226"
         id="path6543-2-7-3"
         inkscape:connector-curvature="0" />
      <path
         style="fill:none;fill-rule:evenodd;stroke:#49887e;stroke-width:12.59102631;stroke-linecap:butt;stroke-linejoin:miter;stroke-miterlimit:4;stroke-dasharray:25.18205207, 12.59102604;stroke-dashoffset:0;stroke-opacity:1"
         d="m -4362.6689,960.20112 0,-117.52226"
         id="path6543-5-6-1"
         inkscape:connector-curvature="0" />
      <path
         style="fill:none;fill-rule:evenodd;stroke:#49887e;stroke-width:12.59102631;stroke-linecap:butt;stroke-linejoin:miter;stroke-miterlimit:4;stroke-dasharray:25.18205207, 12.59102604;stroke-dashoffset:0;stroke-opacity:1"
         d="m -4298.1207,960.20113 0,-117.52226"
         id="path6543-58-6-7"
         inkscape:connector-curvature="0" />
      <path
         style="fill:none;fill-rule:evenodd;stroke:#49887e;stroke-width:12.59102631;stroke-linecap:butt;stroke-linejoin:miter;stroke-miterlimit:4;stroke-dasharray:25.18205207, 12.59102604;stroke-dashoffset:0;stroke-opacity:1"
         d="m -4233.5723,960.20112 0,-117.52226"
         id="path6543-82-8-5"
         inkscape:connector-curvature="0" />
      <path
         sodipodi:nodetypes="ccsscssccsscc"
         inkscape:connector-curvature="0"
         id="path6356-1-8-99-5-5"
         d="m -4182.1389,740.15987 c -17.655,-19.38924 -10.3009,-2.44766 -15.4818,-41.64618 21.7184,-11.51303 46.284,-6.6901 71.6533,14.06755 12.94,10.5877 29.0824,29.2903 40.9479,47.44202 l 5.3255,8.14692 7.4502,0 c 13.0066,0 20.5078,4.13563 23.6646,13.04703 1.8059,5.09797 1.766,16.2133 -0.081,22.62328 -0.698,2.42206 -1.2729,4.66445 -1.2778,4.98309 -0.01,0.31864 3.0301,2.7819 6.7442,5.47392 14.6721,10.63462 6.2621,20.29574 -2.9837,25.71163 -9.4247,5.52053 9.0085,3.2445 -138.7928,3.56245 9.0732,-63.04918 22.6825,-51.40222 2.8314,-103.41171 z"
         style="color:#000000;clip-rule:nonzero;display:inline;overflow:visible;visibility:visible;opacity:1;isolation:auto;mix-blend-mode:normal;color-interpolation:sRGB;color-interpolation-filters:linearRGB;solid-color:#000000;solid-opacity:1;fill:#916f6f;fill-opacity:1;fill-rule:nonzero;stroke:none;stroke-width:1;stroke-linecap:butt;stroke-linejoin:round;stroke-miterlimit:4;stroke-dasharray:none;stroke-dashoffset:0;stroke-opacity:1;color-rendering:auto;image-rendering:auto;shape-rendering:auto;text-rendering:auto;enable-background:accumulate" />
      <path
         sodipodi:nodetypes="ccsscsssssssscssccssscc"
         inkscape:connector-curvature="0"
         id="path6356-6-6-3-4-4-8"
         d="m -4430.6368,801.815 c 0.4853,-0.76626 0.8891,-3.02413 0.8976,-5.01748 0.055,-12.93194 9.7293,-22.76686 24.0517,-24.45018 6.1025,-0.71723 17.8479,0.77079 25.2784,3.20252 2.6481,0.86664 5.1035,1.28695 5.4564,0.93403 0.3529,-0.35293 0.9685,-4.06267 1.3679,-8.24387 1.3066,-13.67888 7.6995,-23.23309 17.9707,-26.85695 5.3568,-1.89 17.8979,-1.87075 25.2289,0.0387 3.1674,0.825 5.9001,1.5 6.0728,1.5 0.1726,0 3.7136,-4.63341 7.8688,-10.29646 13.5528,-18.47071 26.7735,-30.34589 42.0735,-37.79138 26.8618,-13.07187 57.2451,-7.59593 88.6224,15.97226 16.0044,12.02126 35.9697,33.25615 50.6452,53.86557 l 6.5867,9.25 9.2145,0 c 16.0869,0 25.3645,4.69558 29.2689,14.81357 2.2336,5.78822 2.1843,18.40855 -0.1003,25.68643 -0.8633,2.74999 -1.5744,5.296 -1.5804,5.65779 -0.01,0.36179 3.7476,3.15856 8.3413,6.21506 18.1468,12.07452 21.3502,20.77296 9.9147,26.92215 -11.6565,6.26799 -2.463,5.95458 -185.2668,6.31559 l -165.6161,-1.0854 c -80.2758,-22.02285 -10.961,-54.41135 -6.2968,-56.63195 z"
         style="color:#000000;clip-rule:nonzero;display:inline;overflow:visible;visibility:visible;opacity:1;isolation:auto;mix-blend-mode:normal;color-interpolation:sRGB;color-interpolation-filters:linearRGB;solid-color:#000000;solid-opacity:1;fill:#cccccc;fill-opacity:1;fill-rule:nonzero;stroke:none;stroke-width:1;stroke-linecap:butt;stroke-linejoin:round;stroke-miterlimit:4;stroke-dasharray:none;stroke-dashoffset:0;stroke-opacity:1;color-rendering:auto;image-rendering:auto;shape-rendering:auto;text-rendering:auto;enable-background:accumulate" />
      <ellipse
         style="opacity:1;fill:#000000;fill-opacity:0.36363639;stroke:none;stroke-width:10;stroke-linecap:round;stroke-linejoin:round;stroke-miterlimit:4;stroke-dasharray:none;stroke-dashoffset:0;stroke-opacity:1"
         id="path6442-8-3-3"
         cx="-4256.6113"
         cy="978.9223"
         rx="181.31078"
         ry="41.829689" />
    </g>
  </g>
</svg>
